<svg width="32" height="37" viewBox="0 0 32 37" fill="none" xmlns="http://www.w3.org/2000/svg">
  <path d="M1 30l3.5-3H30l-2 3v3l2 2.5H4.5l-2-1L1 33v-3z" fill="#fff"/>
  <path fill-rule="evenodd" clip-rule="evenodd" d="M5.423 0C2.428 0 0 2.428 0 5.423V31.94l.03-.04c.276 2.528 2.418 4.497 5.021 4.497h25.033c.615 0 1.114-.499 1.114-1.114v-.538c0-.28-.174-.53-.419-.664-.664-.363-1.884-1.242-1.884-2.81 0-1.567 1.22-2.446 1.884-2.809.046-.025.09-.055.13-.088.175-.141.29-.35.29-.576V1.337C31.198.6 30.598 0 29.86 0H5.423zM5.05 28.375h22.71c-.532.727-.945 1.681-.945 2.898 0 1.3.472 2.302 1.058 3.045H5.05c-1.64 0-2.971-1.33-2.971-2.971s1.33-2.972 2.971-2.972z" fill="#271F47"/>
  <path d="M5.422 13l10.771 10.77H5.423V13z" fill="#BBD02D"/>
</svg>
