<svg width="97" height="97" viewBox="0 0 97 97" fill="none" xmlns="http://www.w3.org/2000/svg">
<rect x="48.0833" y="1.41421" width="66" height="66" transform="rotate(45 48.0833 1.41421)" fill="white" stroke="#0000FF" stroke-width="2"/>
<path d="M50.669 54.324H45.831C45.831 53.504 45.8857 52.684 45.995 51.864C46.1043 51.0167 46.3503 50.224 46.733 49.486C47.143 48.748 47.6077 48.0647 48.127 47.436C48.6737 46.78 49.2067 46.1377 49.726 45.509C50.2453 44.853 50.6963 44.1423 51.079 43.377C51.4617 42.6117 51.653 41.8053 51.653 40.958C51.653 40.384 51.5027 39.8373 51.202 39.318C50.9013 38.7713 50.464 38.4023 49.89 38.211C49.3433 37.9923 48.783 37.883 48.209 37.883C47.635 37.883 47.0747 37.9923 46.528 38.211C45.9813 38.4297 45.5577 38.7987 45.257 39.318C44.9563 39.8373 44.806 40.384 44.806 40.958V40.999H39.968V40.876C39.968 39.8373 40.173 38.826 40.583 37.842C40.993 36.858 41.5943 36.0243 42.387 35.341C43.1797 34.6577 44.0817 34.193 45.093 33.947C46.1317 33.6737 47.1703 33.537 48.209 33.537C49.2477 33.537 50.2727 33.6737 51.284 33.947C52.3227 34.2203 53.2383 34.7123 54.031 35.423C54.851 36.1063 55.4523 36.9537 55.835 37.965C56.245 38.949 56.45 39.9603 56.45 40.999C56.45 41.8463 56.3133 42.6663 56.04 43.459C55.794 44.2517 55.4523 45.0033 55.015 45.714C54.5777 46.3973 54.0993 47.067 53.58 47.723C53.0607 48.3517 52.5413 49.0077 52.022 49.691C51.53 50.347 51.1747 51.085 50.956 51.905C50.7647 52.6977 50.669 53.504 50.669 54.324ZM48.25 64.328C47.6213 64.328 47.0063 64.1913 46.405 63.918C45.8037 63.6447 45.3663 63.221 45.093 62.647C44.847 62.0457 44.724 61.4307 44.724 60.802C44.724 60.146 44.847 59.531 45.093 58.957C45.3663 58.3557 45.8037 57.9183 46.405 57.645C47.0063 57.3717 47.6213 57.235 48.25 57.235C48.8787 57.235 49.4937 57.3717 50.095 57.645C50.6963 57.9183 51.1337 58.3557 51.407 58.957C51.6803 59.531 51.817 60.146 51.817 60.802C51.817 61.4307 51.6803 62.0457 51.407 62.647C51.1337 63.221 50.6963 63.6447 50.095 63.918C49.4937 64.1913 48.8787 64.328 48.25 64.328Z" fill="#0000FF"/>
</svg>
