<svg width="75" height="40" viewBox="0 0 75 40" fill="none" xmlns="http://www.w3.org/2000/svg">
<rect width="75" height="40" rx="9" fill="#2E5C66"/>
<path d="M13.9343 11.2727H17.9692V20.9105H18.108L24.6911 11.2727H28.1705V28H24.1275V18.3459H24.0214L17.3566 28H13.9343V11.2727ZM29.9858 28V24.831L30.4431 24.782C31.0312 24.7112 31.5104 24.4743 31.8806 24.0714C32.2509 23.663 32.5313 23.015 32.7219 22.1275C32.9179 21.2345 33.0432 20.0284 33.0976 18.5092L33.3671 11.2727H45.104V28H41.1917V14.4581H37.0997L36.8384 19.9957C36.7458 21.907 36.5035 23.4506 36.1115 24.6268C35.7194 25.7975 35.1123 26.6523 34.2901 27.1914C33.4733 27.7305 32.3761 28 30.9985 28H29.9858ZM47.6258 11.2727H51.6606V20.9105H51.7994L58.3825 11.2727H61.8619V28H57.8189V18.3459H57.7128L51.048 28H47.6258V11.2727Z" fill="white"/>
</svg>
