<svg width="64" height="64" viewBox="0 0 64 64" fill="none" xmlns="http://www.w3.org/2000/svg">
<g clip-path="url(#clip0)">
<path d="M24.7172 35.3103H39.2828V50.5379C39.2828 54.5601 36.0222 57.8207 32 57.8207C27.9778 57.8207 24.7172 54.5601 24.7172 50.5379V35.3103Z" fill="#D93535"/>
<path d="M0.535695 23.9715C0.779091 22.9534 1.31701 22.0361 1.93137 21.1885L13.8521 4.74121C16.0106 1.76305 19.4659 0 23.144 0H32.3745L31.9153 19.4575C31.9153 19.4575 19.2513 26.0414 11.9429 30.4552C5.11791 34.577 -1.10727 30.8445 0.535695 23.9715Z" fill="#6B3F0C"/>
<path d="M63.6181 23.5302C63.3747 22.512 62.8368 21.5947 62.2225 20.7471L50.3017 4.29983C48.1432 1.32167 44.6879 -0.441376 41.0098 -0.441376H31.7793L32.2385 19.0161C32.2385 19.0161 44.9025 25.6 52.2109 30.0138C59.0359 34.1356 65.2611 30.4031 63.6181 23.5302Z" fill="#6B3F0C"/>
<path d="M14.5911 35.967V7.72892C14.5911 5.05474 14.9898 2.03665 17.3508 0.781019C18.27 0.292182 19.3125 0.0267629 20.3955 0.0364982L43.9086 0.247863C44.7554 0.255475 45.5755 0.432499 46.3282 0.753865C48.9655 1.87988 49.4601 5.16334 49.4601 8.03098V39.2925C49.4601 46.3448 39.5837 49.8759 31.7398 42.032C23.6394 50.1324 14.5912 46.7862 14.5911 35.967Z" fill="#F1B36A"/>
<path opacity="0.84" d="M32.2463 42.3772C40.0021 49.58 49.4601 46.0508 49.4601 39.1495V3.52419C48.3877 1.44236 46.2503 0.125885 43.9086 0.104835L32.2463 0V42.3772Z" fill="#A27B4E"/>
<ellipse cx="23.8601" cy="17.6552" rx="3.08965" ry="3.08965" fill="black"/>
<circle cx="41.0739" cy="17.6552" r="3.08965" fill="black"/>
<path d="M35.3545 38.5319C33.7773 40.9602 30.2227 40.9602 28.6455 38.5319L27.4127 36.634C25.6843 33.9729 27.5941 30.4552 30.7672 30.4552L33.2327 30.4552C36.4059 30.4552 38.3157 33.9729 36.5873 36.634L35.3545 38.5319Z" fill="black"/>
</g>
<defs>
<clipPath id="clip0">
<rect width="64" height="64" fill="white"/>
</clipPath>
</defs>
</svg>
