<svg xmlns="http://www.w3.org/2000/svg" viewBox="0 0 32 32"><path fill-rule="evenodd" clip-rule="evenodd" d="M24.794 9.297h1.21c.55 0 .996-.499.996-1.115 0-.615-.445-1.114-.995-1.114h-4.293l-1.61-3.171c-.283-.553-.81-.897-1.38-.897h-5.32c-.555 0-1.07.325-1.356.856l-1.739 3.211H5.995c-.55 0-.995.5-.995 1.114 0 .617.446 1.116.995 1.116h1.22l1.123 17.826C8.405 28.181 9.19 29 10.136 29h11.91c.953 0 1.741-.832 1.798-1.898l.95-17.805zM12.636 7.068l.994-1.84h4.858l.934 1.84h-6.787zM9.215 9.356 10.31 26.77h11.556l.93-17.414H9.215z"/></svg>