<svg xmlns="http://www.w3.org/2000/svg" viewBox="0 0 30 21"><path fill-rule="evenodd" clip-rule="evenodd" d="M2.71 0A2.71 2.71 0 0 0 0 2.71V21h6.12a2.37 2.37 0 0 1 2.347-2.709A2.37 2.37 0 0 1 10.815 21h8.177a2.37 2.37 0 0 1 2.346-2.709A2.37 2.37 0 0 1 23.686 21h6.12V2.71A2.71 2.71 0 0 0 27.096 0H2.71zm0 1.355c-.749 0-1.355.606-1.355 1.355v16.935h3.527a3.727 3.727 0 0 1 7.171 0h5.7a3.727 3.727 0 0 1 7.171 0h3.528V2.71c0-.749-.607-1.355-1.355-1.355H2.71z"/><path fill-rule="evenodd" clip-rule="evenodd" d="M25.742 7.452H4.065v1.354h21.677V7.452zM4.065 10.839h14.903v1.354H4.065V10.84zm21.677-6.774H4.065v1.354h21.677V4.065z"/></svg>