<svg viewBox="0 0 32 32" fill="none" xmlns="http://www.w3.org/2000/svg">
  <path d="M25.065 6.647C25.065 3.533 22.53 1 19.417 1S13.77 3.533 13.77 6.647c0 .102.005.204.01.305-.904.284-1.756.78-2.472 1.496-1.74 1.74-2.252 4.332-1.343 6.583L3.38 21.617c-.113.113-.182.264-.193.424l-.185 2.615c-.014.192.057.382.193.518.126.126.295.196.471.196l.048-.002 2.614-.185c.16-.011.311-.08.425-.194l.793-.793c.101-.101.167-.232.188-.374l.208-1.404 1.4-.207c.29-.043.519-.271.562-.562l.207-1.4 1.404-.208c.142-.02.273-.087.374-.188l1.449-1.449c.903.366 1.86.498 2.796.418.149.079.3.154.455.22v9.312c0 .16.058.316.163.437l1.718 1.98c.126.145.31.229.503.229s.377-.084.504-.23l1.718-1.98c.105-.12.163-.276.163-.436v-1.122c0-.144-.046-.283-.132-.398l-.845-1.139.843-1.137c.175-.235.175-.558 0-.794l-.843-1.137.845-1.14c.086-.114.132-.253.132-.396v-2.05c2.236-.948 3.706-3.143 3.706-5.604 0-1.286-.403-2.478-1.086-3.462.703-.963 1.086-2.125 1.086-3.328zm-9.961 0c0-2.378 1.935-4.314 4.313-4.314 2.378 0 4.314 1.936 4.314 4.314 0 .818-.233 1.61-.663 2.294-1.083-.987-2.517-1.595-4.095-1.595-.171 0-.343.01-.513.024-1.041-.55-2.209-.774-3.355-.679l-.001-.044zm-1.615 10.364c-.257-.128-.567-.077-.77.125l-1.617 1.618-1.675.248c-.29.043-.519.271-.562.562l-.208 1.4-1.4.208c-.29.043-.519.271-.562.562l-.248 1.675-.461.462-1.6.113.113-1.6 6.734-6.734c.202-.203.253-.513.125-.77-.916-1.833-.558-4.04.892-5.489.514-.513 1.118-.88 1.76-1.108.319 1.063.945 2.006 1.807 2.716-.052.413.075.844.392 1.162.545.545 1.43.545 1.975 0 .545-.546.545-1.43 0-1.975-.429-.429-1.064-.515-1.583-.27-.593-.51-1.032-1.165-1.276-1.902 1.313-.08 2.652.376 3.653 1.377.899.899 1.394 2.094 1.394 3.364 0 1.271-.495 2.466-1.394 3.364-1.45 1.45-3.656 1.808-5.49.893h.001z" fill="CurrentColor"/>
</svg>
