<svg xmlns="http://www.w3.org/2000/svg" viewBox="0 0 32 32"><path d="M2.03 3.059H0v15.556h2.03V3.059zm1.352 0h2.705v15.556H3.382V3.059zm9.542 15.143c0-1.502.78-2.822 1.956-3.578v3.991h-1.937a4.343 4.343 0 0 1-.02-.413zm6.69.413v-3.89a4.215 4.215 0 0 0-2.029-.752v4.642h2.03z"/><path fill-rule="evenodd" clip-rule="evenodd" d="M8.116 3.059h6.764v6.626a8.698 8.698 0 0 1 2.705-.164V3.059h2.03v6.91a8.748 8.748 0 0 1 2.705 1.54V3.06h4.058v15.556h-.975a8.603 8.603 0 0 1-.924 3.45l6.703 3.923a1.445 1.445 0 1 1-1.46 2.493l-6.97-4.08a8.67 8.67 0 0 1-14.636-7.08V3.058zm11.642 9.945a5.962 5.962 0 1 1-6.023 10.291 5.962 5.962 0 0 1 6.023-10.291z"/><path d="M27.73 3.059h2.03v15.556h-2.03V3.059z"/></svg>