<svg xmlns="http://www.w3.org/2000/svg" viewBox="0 0 21 29"><path d="m15.54 6.873-.192-.197-5.324 4.46L6.3 9.596l-.42.626 4.144 3.547 5.516-6.897z"/><path fill-rule="evenodd" clip-rule="evenodd" d="m10.5 0 1.762 1.633 2.256-.839.999 2.178 2.408.083.083 2.392 2.193.993-.845 2.241L21 10.431l-1.643 1.75.844 2.243-2.193.992-.083 2.392-2.408.083-.26.568 5.113 7.62-5.25-1.252L12.81 29l-2.316-8.142-.157-.145L7.98 29l-2.31-4.173L.42 26.08l5.238-7.806-.175-.382-2.408-.083-.083-2.392-2.193-.992.844-2.242L0 10.432l1.643-1.75L.8 6.44l2.193-.993.083-2.392 2.408-.083.999-2.178 2.256.839L10.5 0zm7.98 10.432c0 4.378-3.573 7.928-7.98 7.928s-7.98-3.55-7.98-7.928c0-4.379 3.573-7.928 7.98-7.928s7.98 3.55 7.98 7.928z"/></svg>