<svg xmlns="http://www.w3.org/2000/svg" viewBox="0 0 32 32"><path fill-rule="evenodd" clip-rule="evenodd" d="M12.563 12.454c0-1.62-1.297-2.934-2.896-2.934-1.6 0-2.897 1.314-2.897 2.934a2.93 2.93 0 0 0 2.171 2.842 2.871 2.871 0 0 0 1.451 0 2.928 2.928 0 0 0 2.171-2.841zm1.77 0c0-2.202-1.487-4.053-3.5-4.578V3H8.5v4.876C6.487 8.401 5 10.252 5 12.454c0 2.203 1.487 4.054 3.5 4.579V29h2.333V17.032c2.013-.524 3.5-2.375 3.5-4.578zm9.897 7.091c0-1.62-1.297-2.934-2.897-2.934-1.6 0-2.896 1.314-2.896 2.934 0 1.621 1.297 2.935 2.896 2.935 1.6 0 2.897-1.314 2.897-2.934zm1.77 0c0-2.202-1.487-4.053-3.5-4.578V3h-2.333v11.967c-2.013.525-3.5 2.376-3.5 4.579 0 2.202 1.487 4.053 3.5 4.578V29H22.5v-4.876c2.013-.525 3.5-2.376 3.5-4.578z"/></svg>