<svg xmlns="http://www.w3.org/2000/svg" viewBox="0 0 32 32"><path d="M15.954 4.825C9.33 4.825 3.958 9.828 3.958 16c0 6.172 5.371 11.175 11.996 11.175 4.935 0 9.176-2.776 11.018-6.747.214-.463.79-.676 1.287-.476.497.2.725.737.51 1.2C26.63 25.766 21.7 29 15.955 29 8.247 29 2 23.18 2 16S8.247 3 15.954 3c4.66 0 8.785 2.128 11.319 5.395L29 7.465v5.99l-5.567-2.995 2.133-1.147c-2.188-2.726-5.68-4.488-9.612-4.488z"/><path fill-rule="evenodd" clip-rule="evenodd" d="M12.663 11.297c1.314.304 2.285 1.375 2.285 2.65 0 1.276-.971 2.347-2.285 2.651v6.928H11.14v-6.928c-1.314-.304-2.285-1.375-2.285-2.65 0-1.276.97-2.347 2.285-2.651V8.474h1.523v2.823zm-.762.952c1.045 0 1.891.76 1.891 1.698 0 .79-.601 1.457-1.417 1.646a2.145 2.145 0 0 1-.947 0c-.816-.189-1.418-.855-1.418-1.646 0-.938.847-1.698 1.891-1.698zm8.379 3.153c1.313.304 2.284 1.375 2.284 2.65 0 1.276-.97 2.347-2.285 2.651v2.823h-1.523v-2.823c-1.314-.304-2.285-1.375-2.285-2.65 0-1.276.971-2.347 2.285-2.651V8.474h1.523v6.928zm-.762.952c1.044 0 1.89.76 1.89 1.699 0 .938-.846 1.698-1.89 1.698-1.045 0-1.891-.76-1.891-1.698 0-.939.846-1.7 1.89-1.7z"/></svg>