;<svg viewBox="0 0 16 16" fill="none" xmlns="http://www.w3.org/2000/svg">
	<path
		d="M12.172 2.605l.342.666h1.697l-.076 1.095c-.002.085.024.167.074.23.028.035.062.063.1.082.038.02.08.03.121.03.075 0 .146-.032.2-.089.055-.057.088-.135.093-.218l.08-1.178c0-.166-.059-.325-.163-.442-.104-.117-.246-.183-.394-.183l-2.074.007zM1.437 4.718h.018c.04-.003.077-.014.112-.033.036-.02.067-.046.093-.08.026-.032.046-.07.058-.112.013-.041.018-.085.016-.129l-.076-1.093h3.279l1.024-.666H1.62c-.073 0-.145.015-.212.047-.067.03-.128.076-.18.134-.053.06-.094.132-.123.211-.028.08-.042.164-.04.248l.08 1.149c.001.086.033.168.087.229.055.06.129.094.206.095zM1.99 1.964h.016c.04-.003.078-.014.113-.033.035-.02.066-.046.092-.08.026-.032.046-.07.059-.112.012-.041.017-.085.015-.129L2.217.675h11.43l-.067.937c-.002.046.005.09.019.133.014.042.035.08.063.113.028.033.061.06.098.078.037.018.077.027.117.028.077 0 .15-.033.206-.093.055-.06.088-.14.091-.226l.074-1.046c0-.159-.056-.311-.157-.423-.1-.113-.236-.176-.378-.176H2.153c-.07 0-.139.015-.203.045-.065.03-.124.074-.173.13-.052.058-.092.128-.12.204-.026.077-.04.159-.038.241l.074 1.025c.003.085.036.167.091.226.055.06.13.093.206.093z"
		fill="CurrentColor"
	/>
	<path
		d="M15.385 5.24H12.71l-1.014-1.97-.343-.665-.47-.92c-.152-.29-.399-.501-.689-.587-.29-.086-.598-.04-.857.129L7.205 2.605 6.18 3.27 3.433 5.046c-.08.054-.154.119-.22.193H.623c-.081 0-.162.018-.237.053-.076.035-.144.087-.201.152-.06.068-.108.15-.14.24-.032.089-.047.185-.045.281l.584 9.346c.003.182.07.355.184.483.114.129.269.202.43.206H14.8c.163 0 .32-.073.435-.202.115-.129.18-.304.18-.487L16 5.937c.001-.09-.014-.181-.044-.266-.03-.085-.076-.162-.133-.227-.057-.065-.126-.116-.2-.152-.076-.035-.156-.053-.238-.053zm-7.98-1.97l1.025-.665 1.21-.784c.058-.038.123-.063.19-.073.068-.01.136-.005.202.015s.127.053.181.1c.054.046.1.104.133.17l.293.57.343.665 1.014 1.969h-1.064c-.043 0-.086.01-.126.028-.04.018-.077.045-.107.08l-.783.875H6.09l-.783-.875c-.03-.035-.067-.062-.107-.08-.04-.019-.083-.028-.126-.028h-.71L7.407 3.27zm7.363 11.89c-.002.024-.012.048-.029.065-.016.017-.038.026-.06.026H1.3c-.017 0-.034-.008-.047-.022-.013-.013-.02-.031-.022-.051L.668 6.052c.001-.016.008-.032.019-.043.005-.007.012-.013.02-.016.008-.004.016-.005.025-.005h4.205l.782.875c.062.07.146.108.234.108h4.098c.088 0 .172-.04.234-.108l.783-.875h4.168c.014 0 .028.003.041.01.013.006.025.015.034.027.01.011.018.025.022.04.005.015.006.031.005.047l-.57 9.047z"
		fill="CurrentColor"
	/>
</svg>
