<svg xmlns="http://www.w3.org/2000/svg" viewBox="0 0 32 32"><path d="M9.29 4.447 3.05 5.863l-.046 10.071c-.015 5.529.015 10.118.076 10.18.076.076 2.907.754 6.316 1.508 5.145 1.155 6.438 1.402 7.504 1.402h1.294V25.79H29V6.233H18.194V2.999l-1.325.015c-1.08.016-2.526.293-7.58 1.433zm6.773 11.564c0 8.593-.046 10.857-.183 10.841-.106 0-2.557-.538-5.449-1.185l-5.25-1.201-.046-8.424-.03-8.423.41-.108c.533-.123 10.274-2.325 10.441-2.34.061-.016.107 4.865.107 10.84zm10.776.031.03 7.592h-8.675v-2.156h2.131v-2.156h-2.131v-1.078h2.131v-2.156h-2.131v-1.231h2.131v-2.002h-2.131v-1.232h2.131V9.467h-2.131V8.389l4.307.03 4.292.047.046 7.576z"/><path d="m11.527 10.899-1.552 3.665-1.355-3.188-1.994.385c.544 1.44 1.796 4.25 1.796 4.25l-2.07 4.312 2.238.324 1.156-3.296 1.69 3.742 2.587.339-2.83-5.436 2.709-5.359-2.375.262zm9.863-.354v1.078h4.26V9.467h-4.26v1.078zm0 3.341v1.048h4.26v-2.079h-4.26v1.031zm0 3.28v1.078h4.26v-2.156h-4.26v1.078zm0 3.234v1.078h4.26v-2.156h-4.26V20.4z"/></svg>