<svg width="118" height="118" viewBox="0 0 118 118" fill="none" xmlns="http://www.w3.org/2000/svg">
<g clip-path="url(#clip0)">
<path d="M93.667 92.8093C89.001 84.786 59.001 79.7511 59.001 79.7511C59.001 79.7511 29.001 84.786 24.335 92.8093C20.886 103.944 18.001 118.091 18.001 118.091H59.001H100.001C100.001 118.091 98.052 102.922 93.667 92.8093Z" fill="#F1C9A5"/>
<path d="M59.001 79.7511C59.001 79.7511 89.001 84.786 93.667 92.8093C98.053 102.922 100.001 118.091 100.001 118.091H59.001V79.7511Z" fill="#E4B692"/>
<path d="M67.168 63.4392H50.834V88.2694H67.168V63.4392Z" fill="#F1C9A5"/>
<path d="M67.168 63.4392H59.001V88.2694H67.168V63.4392Z" fill="#E4B692"/>
<path opacity="0.1" d="M50.834 74.9451C52.303 78.7755 58.231 80.9709 62.585 80.9709C64.16 80.9709 65.692 80.7312 67.168 80.2924V63.4392H50.834V74.9451Z" fill="#DDAC8C"/>
<path d="M80.001 47.7714C80.001 32.2625 70.599 23.4435 59.001 23.4435C47.403 23.4435 38.001 32.2625 38.001 47.7714C38.001 68.6322 47.403 75.8543 59.001 75.8543C70.598 75.8543 80.001 67.7629 80.001 47.7714Z" fill="#F1C9A5"/>
<path d="M76.804 58.5261C72.997 58.1637 70.427 54.4386 71.071 50.2094C71.708 45.9766 75.313 42.8337 79.122 43.1934C82.927 43.5531 85.493 47.2773 84.851 51.5101C84.213 55.7439 80.611 58.884 76.804 58.5261Z" fill="#E4B692"/>
<path d="M33.299 51.511C32.656 47.2782 35.223 43.554 39.026 43.1943C42.836 42.8337 46.442 45.9765 47.081 50.2103C47.723 54.4395 45.151 58.1655 41.347 58.527C37.539 58.884 33.937 55.7438 33.299 51.511Z" fill="#F1C9A5"/>
<path d="M80.001 47.7714C80.001 32.2625 70.599 23.4435 59.001 23.4435V75.8543C70.598 75.8543 80.001 67.7629 80.001 47.7714Z" fill="#E4B692"/>
<path d="M93.667 92.8095C90.941 88.1243 79.585 84.461 70.602 82.2219L59.001 118.091L47.4 82.2219C38.417 84.461 27.06 88.1243 24.334 92.8095C20.885 103.944 18 118.091 18 118.091H59H100C100.001 118.091 98.052 102.922 93.667 92.8095Z" fill="#0D313D"/>
<path d="M47.027 82.2219L59.001 118.091L70.646 82.2219L59.001 94.2664L47.027 82.2219Z" fill="#F1F2F2"/>
<path d="M59.001 118.091L76.729 100.156L70.646 98.0633L81.229 85.006L70.945 82.2219L59.001 118.091Z" fill="#2B5770"/>
<path d="M59.001 118.091L41.272 100.156L47.355 98.0633L36.772 85.006L47.056 82.2219L59.001 118.091Z" fill="#2B5770"/>
<path d="M43.973 96.7987L53.05 89.1351L58.985 94.2654L50.833 81.4025L45.854 81.7504C45.497 86.7516 43.973 96.7987 43.973 96.7987Z" fill="white"/>
<path d="M73.999 96.7987L64.922 89.1351L58.986 94.2654L67.138 81.4025L72.117 81.7504C72.475 86.7516 73.999 96.7987 73.999 96.7987Z" fill="white"/>
<path d="M82.057 44.2753C82.057 44.2753 78.313 41.7092 76.709 49.2411C77.23 42.1634 76.851 32.3997 70.528 30.613C67.015 36.3546 53.11 40.0534 43.979 38.0123C44.68 44.5205 42.575 49.8806 40.186 51.2831C40.326 46.0511 40.324 42.8601 36.672 43.882C35.69 32.9093 42.306 19 60.146 19C77.987 19.0009 83.884 29.9827 82.057 44.2753Z" fill="#262421"/>
</g>
<defs>
<clipPath id="clip0">
<rect width="118" height="118" fill="white"/>
</clipPath>
</defs>
</svg>
