<svg width="85" height="85" viewBox="0 0 85 85" fill="none" xmlns="http://www.w3.org/2000/svg">
<circle cx="42.5" cy="42.5" r="42.5" fill="white" fill-opacity="0.3"/>
<mask id="mask0" mask-type="alpha" maskUnits="userSpaceOnUse" x="0" y="0" width="85" height="85">
<circle cx="42.5" cy="42.5" r="42.5" fill="#FFD098"/>
</mask>
<g mask="url(#mask0)">
<path d="M39.1517 8.05929C37.9919 8.15497 36.4805 8.50896 35.6915 8.87253C35.4063 8.9969 35.1591 9.08301 35.1306 9.05431C35.1021 9.02561 35.2447 8.82469 35.4538 8.61421L35.8246 8.22194L35.3017 8.48026C34.4842 8.89166 33.7998 9.36047 33.2389 9.88669C32.659 10.4512 32.3834 10.8626 32.2123 11.427L32.0982 11.8193L31.3947 11.9341C30.159 12.1255 28.2577 13.1014 27.5068 13.9337L27.2691 14.1921L27.6969 13.9816C27.925 13.8572 28.2482 13.7328 28.4098 13.685L28.695 13.6084L28.4574 13.7711C27.3927 14.4695 26.3565 16.3926 26.3755 17.6651V17.9521L26.6227 17.5407C26.7558 17.3111 26.8794 17.1484 26.8889 17.158C26.9079 17.1771 26.8128 17.5503 26.6892 17.9999C26.3755 19.0715 26.1094 20.6693 26.0333 21.9704C25.9002 24.0753 26.347 27.5196 27.0695 30.0741L27.4687 31.4901H27.0885C26.6037 31.4901 26.1379 31.7676 25.9383 32.1694C25.7291 32.5712 25.6436 34.0351 25.7862 34.9248C25.8527 35.3745 26.0714 36.0347 26.3565 36.6948C26.6132 37.2785 26.8889 38.0534 26.9744 38.417C27.4687 40.4453 28.2197 42.1866 28.8281 42.6841C29.1798 42.9807 29.6551 43.0668 29.8643 42.8563C29.9973 42.7224 29.9878 42.7128 30.2635 43.88C30.6533 45.5256 30.9575 46.3772 31.7084 47.9749L32.4784 49.5918L32.4214 51.5149C32.3453 53.7059 32.2598 54.3565 32.0221 54.5C30.7483 55.2558 29.7502 56.0308 28.8091 56.9875C27.6494 58.1548 27.6208 58.1739 25.5961 59.0445C21.0997 60.9867 18.0102 62.1635 13.3903 63.7135C10.2913 64.7468 8.8369 65.34 7.44902 66.1341C4.61622 67.7414 3.20933 69.3392 2.36329 71.8937C1.69787 73.8933 1.33664 76.1704 1.18454 79.3276C1.04195 82.1883 0.946891 88.6942 1.03244 89.9284L1.09899 91H42.7164H84.3339L84.3909 90.646C84.4194 90.4451 84.486 87.8045 84.543 84.7811C84.6761 77.9691 84.6096 76.3809 84.1247 74.4004C83.1836 70.5542 81.5201 67.6266 79.5809 66.3732C79.2862 66.1915 78.0409 65.627 76.8241 65.1295C75.6073 64.632 73.8582 63.924 72.9456 63.5413C67.0329 61.1015 62.3749 59.2646 59.8083 58.3365C58.7246 57.9538 57.8881 57.3894 57.2607 56.6431C56.1485 55.2845 54.8747 54.146 54.1902 53.8876C54.0191 53.8207 53.9145 53.6867 53.848 53.4284C53.6674 52.7778 53.6199 51.6584 53.7339 50.606C53.8385 49.6779 53.8955 49.477 54.3708 48.4533C54.9982 47.133 55.7207 44.9707 56.0344 43.5452C56.1485 42.9903 56.2625 42.5214 56.2815 42.5023C56.3006 42.4736 56.4051 42.5501 56.5287 42.665C56.8614 42.9807 57.3082 42.9424 57.6694 42.5597C58.3919 41.7943 59.2474 39.3355 59.6277 36.9436C59.7513 36.1878 59.9794 35.2597 60.179 34.6952C60.6924 33.2218 60.7589 32.9348 60.6638 32.4947C60.4927 31.7197 60.0459 31.3562 59.3425 31.4423L58.8957 31.4901L59.1714 30.4855C59.6657 28.6294 59.7798 27.6248 59.7798 25.3191C59.7703 22.4871 59.4946 21.0902 58.4014 18.4783C57.4698 16.2395 56.5192 14.7661 55.0743 13.3023C52.6027 10.8052 49.922 9.69534 44.3705 8.86296C43.5244 8.73859 41.2715 8.56637 39.722 8.49939L39.1517 8.48026L39.8171 8.34632C40.1878 8.27934 41.1289 8.18367 41.9084 8.1454C42.6974 8.10713 43.1347 8.07842 42.897 8.06886C42.6594 8.05929 41.9559 8.03059 41.3285 8.01146C40.7107 7.98275 39.7315 8.01146 39.1517 8.05929Z" fill="white" fill-opacity="0.46"/>
</g>
</svg>
