<svg width="118" height="118" viewBox="0 0 118 118" fill="none" xmlns="http://www.w3.org/2000/svg">
<path d="M65.1171 20.7152C65.1171 20.7152 59.3229 14.2435 50.0269 18.3832C43.5325 21.2765 42.1262 23.1709 36.5828 24.4341C30.7305 25.768 26.8104 31.5866 29.0802 38.4337C30.9678 44.1277 32.5609 51.6245 31.3213 54.8266C29.6878 59.048 31.2876 62.3057 36.8807 66.2754C42.4746 70.2451 51.3894 74.1315 51.3894 74.1315L67.6158 72.997C67.6158 72.997 87.5509 69.2108 86.116 59.0084C85.0801 51.6489 83.3961 50.9722 87.1226 46.4698C89.5109 43.5832 89.4714 34.0516 83.8783 30.804C78.2844 27.5572 78.8895 23.6641 75.8219 20.9576C72.7544 18.2511 65.1171 20.7152 65.1171 20.7152Z" fill="#3C2A20"/>
<path d="M89.7339 93.0139C85.5572 85.1064 58.7018 80.1445 58.7018 80.1445C58.7018 80.1445 31.8464 85.1064 27.6697 93.0139C24.5819 103.987 22 117.929 22 117.929H58.7018H95.4036C95.4036 117.929 93.6599 102.979 89.7339 93.0139Z" fill="#F1C9A5"/>
<path d="M58.7018 80.1445C58.7018 80.1445 85.5572 85.1064 89.734 93.0139C93.6599 102.98 95.4036 117.929 95.4036 117.929H58.7018V80.1445Z" fill="#E4B692"/>
<path d="M66.0134 64.0686H51.3911V88.539H66.0134V64.0686Z" fill="#F1C9A5"/>
<path d="M66.0134 64.0686H58.7018V88.539H66.0134V64.0686Z" fill="#E4B692"/>
<path opacity="0.1" d="M51.3911 75.4079C52.7065 79.1824 58.0134 81.3469 61.9107 81.3469C63.3212 81.3469 64.693 81.1113 66.0134 80.6779V64.0686H51.3911V75.4079Z" fill="#DDAC8C"/>
<path d="M77.5009 48.6277C77.5009 33.343 69.0843 24.6521 58.7018 24.6521C48.3202 24.6521 39.9028 33.343 39.9028 48.6277C39.9028 63.9123 48.3202 76.3036 58.7018 76.3036C69.0843 76.3036 77.5009 63.9123 77.5009 48.6277Z" fill="#F1C9A5"/>
<path d="M77.5009 48.6277C77.5009 33.343 69.0843 24.6521 58.7018 24.6521V76.3036C69.0843 76.3036 77.5009 63.9123 77.5009 48.6277Z" fill="#E4B692"/>
<path d="M89.7339 93.0138C88.3327 90.3611 84.3748 88.0418 79.7386 86.1272C77.4066 95.5806 68.8747 102.593 58.7018 102.593C48.5289 102.593 39.9962 95.5806 37.665 86.1272C33.0296 88.0409 29.0709 90.3603 27.6697 93.0138C24.5819 103.987 22 117.929 22 117.929H58.7018H95.4036C95.4036 117.929 93.6599 102.979 89.7339 93.0138Z" fill="#BF0020"/>
<path d="M47.5325 82.6616C47.5325 82.6719 47.5325 82.6814 47.5325 82.6908" stroke="white" stroke-width="1.9426" stroke-linecap="round" stroke-linejoin="round"/>
<path d="M47.7445 84.8699C48.7738 90.1314 53.4108 94.1011 58.9745 94.1011C64.9135 94.1011 69.7979 89.5751 70.3618 83.7834" stroke="white" stroke-width="1.9426" stroke-linecap="round" stroke-linejoin="round" stroke-dasharray="0.07 2.6"/>
<path d="M70.4165 82.6908C70.4165 82.6805 70.4165 82.6719 70.4165 82.6616" stroke="white" stroke-width="1.9426" stroke-linecap="round" stroke-linejoin="round"/>
<path d="M61.8443 24.9003C61.5093 24.5645 45.2998 20.4467 46.1691 29.5735C46.8407 36.6234 41.8207 36.344 38.5605 41.608C35.2994 46.8729 34.9922 50.405 38.1649 54.8283C38.4477 51.5066 38.5605 46.9284 45.6095 41.608C52.6593 36.2884 52.4355 33.7141 51.54 30.2451C50.6455 26.7761 61.8443 24.9003 61.8443 24.9003Z" fill="#3C2A20"/>
<path d="M44.3791 63.4789C36.1595 58.5305 37.5556 50.9824 37.8561 47.2164C38.2104 42.7973 42.7103 41.4289 48.013 38.2469C53.3158 35.0666 49.7652 33.4786 51.8859 28.1758C54.0075 22.8731 65.8064 24.7624 65.8064 24.7624C65.8064 24.7624 58.8819 24.8137 56.762 30.1156C54.6404 35.4192 57.6465 37.009 52.3429 40.1909C47.0402 43.3721 44.3194 43.3637 43.0637 47.6153C41.7585 52.0378 38.2196 55.3468 44.3791 63.4789Z" fill="#564036"/>
<path d="M36.4481 57.2385C28.2285 52.2909 31.1975 47.2187 31.498 43.4519C31.8523 39.0328 34.749 38.1643 40.0526 34.9831C45.3553 31.802 43.0755 31.2558 45.1971 25.9539C47.3187 20.6511 59.0721 24.1857 59.0721 24.1857C59.0721 24.1857 51.6486 22.5943 49.527 27.8971C47.4054 33.2015 49.8476 34.0002 45.1079 37.9724C41.7483 40.7891 35.5821 40.9709 35.8287 45.3967C36.1384 50.9393 29.9074 52.2892 36.4481 57.2385Z" fill="#564036"/>
<path d="M56.5508 24.4528C56.8865 24.1178 73.0961 20 72.2267 29.1269C71.5551 36.1767 76.5743 35.8965 79.8354 41.1614C83.0965 46.4254 83.4036 49.9583 80.2301 54.3808C79.9473 51.0591 79.8354 46.4809 72.7855 41.1614C65.7365 35.8409 65.9604 33.2674 66.855 29.7984C67.7512 26.3286 56.5508 24.4528 56.5508 24.4528Z" fill="#3C2A20"/>
<path d="M74.7127 62.1431C82.9324 56.7529 79.9633 51.2263 79.6629 47.1219C79.3086 42.3073 76.7089 42.2753 71.4054 38.8089C66.1026 35.3433 69.1609 33.8486 67.0393 28.0721C64.9177 22.2955 52.5878 24.3431 52.5878 24.3431C52.5878 24.3431 59.5114 24.3986 61.6322 30.176C63.7538 35.9543 60.7477 37.6879 66.0513 41.1526C71.354 44.6191 74.977 44.428 75.3305 49.2418C75.6334 53.3462 81.2534 56.7503 74.7127 62.1431Z" fill="#564036"/>
<path d="M82.2019 60.5956C90.5132 55.0968 87.5113 49.4616 87.2067 45.2756C86.849 40.365 83.9195 39.3998 78.5562 35.8643C73.1945 32.3289 75.5004 31.7221 73.3544 25.8302C71.2092 19.9376 59.3229 23.866 59.3229 23.866C59.3229 23.866 66.8305 22.0979 68.9749 27.9897C71.1209 33.8841 68.6509 34.7711 73.4436 39.186C76.841 42.315 83.0771 42.5178 82.8272 47.4359C82.5149 53.5971 88.8149 55.0951 82.2019 60.5956Z" fill="#564036"/>
<path d="M79.7386 86.1273C79.7386 86.1273 71.9583 89.3 73.1634 97.0526C68.9968 96.7496 60.045 97.6939 58.7018 102.593C55.5687 98.2417 48.2377 95.8929 43.8472 96.6941C43.7833 92.2733 40.911 87.7389 37.665 86.1265C33.6373 94.0263 35.9432 102.083 35.9432 102.083C35.9432 102.083 46.1691 110.699 46.7288 110.699C47.2884 110.699 68.3244 114.392 68.3244 114.392C68.3244 114.392 82.3694 109.803 82.4527 109.356C82.536 108.909 79.7386 86.1273 79.7386 86.1273Z" fill="#BF0020"/>
<path d="M71.7403 34.2739C71.7403 34.2739 73.2484 41.1639 80.1863 47.8131C83.1495 50.6551 80.8579 63.0313 74.4796 69.1857C79.9625 64.7102 87.9742 55.3814 84.4379 47.8131C80.9025 40.2449 73.3376 37.6512 71.7403 34.2739Z" fill="#564036"/>
<path d="M48.2226 33.7849C48.2226 33.7849 46.3164 42.6181 39.3785 49.2673C36.4153 52.1093 35.6713 60.653 42.0496 66.8074C36.5659 62.3319 31.5906 56.8356 35.126 49.2673C38.6623 41.6999 46.6253 37.1621 48.2226 33.7849Z" fill="#564036"/>
</svg>
