<svg width="118" height="118" viewBox="0 0 118 118" fill="none" xmlns="http://www.w3.org/2000/svg">
<path d="M93.666 89.9545C89 81.1215 59 75.5785 59 75.5785C59 75.5785 29 81.1215 24.334 89.9545C20.885 102.212 18 117.787 18 117.787H59H100C100 117.787 98.051 101.087 93.666 89.9545Z" fill="#F1C9A5"/>
<path d="M59 75.5785C59 75.5785 89 81.1215 93.666 89.9545C98.052 101.087 100 117.787 100 117.787H59V75.5785Z" fill="#E4B692"/>
<path d="M67.167 57.6205H50.833V84.9565H67.167V57.6205Z" fill="#F1C9A5"/>
<path d="M67.167 57.6205H59V84.9565H67.167V57.6205Z" fill="#E4B692"/>
<path opacity="0.1" d="M50.833 70.2875C52.302 74.5045 58.23 76.9215 62.584 76.9215C64.159 76.9215 65.691 76.6575 67.167 76.1745V57.6205H50.833V70.2875Z" fill="#DDAC8C"/>
<path d="M80 40.3715C80 23.2975 70.598 13.5885 59 13.5885C47.402 13.5885 38 23.2975 38 40.3715C38 63.3375 47.402 71.2885 59 71.2885C70.597 71.2885 80 62.3805 80 40.3715Z" fill="#F1C9A5"/>
<path d="M76.803 52.2115C72.996 51.8125 70.426 47.7115 71.071 43.0555C71.708 38.3955 75.313 34.9355 79.122 35.3315C82.927 35.7275 85.493 39.8275 84.851 44.4875C84.212 49.1485 80.61 52.6055 76.803 52.2115Z" fill="#E4B692"/>
<path d="M33.298 44.4885C32.655 39.8285 35.222 35.7285 39.025 35.3325C42.836 34.9355 46.441 38.3955 47.08 43.0565C47.722 47.7125 45.15 51.8145 41.346 52.2125C37.538 52.6055 33.936 49.1485 33.298 44.4885Z" fill="#F1C9A5"/>
<path d="M80 40.3715C80 23.2975 70.598 13.5885 59 13.5885V71.2885C70.597 71.2885 80 62.3805 80 40.3715Z" fill="#E4B692"/>
<path d="M93.666 89.9545C90.94 84.7965 79.584 80.7635 70.601 78.2985L59 91.5585L47.399 78.2985C38.416 80.7635 27.059 84.7965 24.334 89.9545C20.885 102.212 18 117.787 18 117.787H59H100C100 117.787 98.051 101.087 93.666 89.9545Z" fill="#3595BB"/>
<path d="M41.379 48.5445C41.379 48.5445 56.214 38.4205 57.96 32.8365C57.785 37.8975 57.96 42.4355 57.96 42.4355C57.96 42.4355 72.447 28.1245 71.05 16.4305C54.644 7.70251 41.903 17.8265 38.935 22.5385C35.967 27.2505 35.269 40.3415 41.379 48.5445Z" fill="#262421"/>
<path d="M68.955 21.1415C68.955 21.1415 75.763 29.3465 77.159 45.7525C82.046 38.5955 87.282 17.8255 71.05 16.4305C69.653 19.0475 68.955 21.1415 68.955 21.1415Z" fill="#262421"/>
<path d="M73.998 94.3465L64.921 85.9095L58.985 91.5575L68.85 77.4735C68.85 77.4735 72.067 77.8295 73.211 81.3335C73.569 86.8405 73.998 94.3465 73.998 94.3465Z" fill="white"/>
<path d="M55.792 117.788H59V91.5585L55.792 88.5195V117.788Z" fill="#27AAE1"/>
<path d="M43.972 94.3465L53.049 85.9095L58.985 91.5575L49.12 77.4735C49.12 77.4735 45.903 77.8295 44.759 81.3335C44.401 86.8405 43.972 94.3465 43.972 94.3465Z" fill="white"/>
</svg>
