<svg width="118" height="118" viewBox="0 0 118 118" fill="none" xmlns="http://www.w3.org/2000/svg">
<path d="M93.666 89.992C89 81.159 59 75.616 59 75.616C59 75.616 29 81.159 24.334 89.992C20.885 102.25 18 117.825 18 117.825H59H100C100 117.825 98.051 101.125 93.666 89.992Z" fill="#F1C9A5"/>
<path d="M59 75.616C59 75.616 89 81.159 93.666 89.992C98.052 101.125 100 117.825 100 117.825H59V75.616Z" fill="#E4B692"/>
<path d="M67.167 57.6589H50.833V84.9949H67.167V57.6589Z" fill="#F1C9A5"/>
<path d="M67.167 57.6589H59V84.9949H67.167V57.6589Z" fill="#E4B692"/>
<path opacity="0.1" d="M50.833 70.325C52.302 74.542 58.23 76.959 62.584 76.959C64.159 76.959 65.691 76.695 67.167 76.212V57.658H50.833V70.325Z" fill="#DDAC8C"/>
<path d="M80 40.409C80 23.335 70.598 13.626 59 13.626C47.402 13.626 38 23.335 38 40.409C38 63.375 47.402 71.326 59 71.326C70.597 71.326 80 62.418 80 40.409Z" fill="#F1C9A5"/>
<path d="M76.803 52.249C72.996 51.85 70.426 47.749 71.07 43.093C71.707 38.433 75.312 34.973 79.121 35.369C82.926 35.765 85.492 39.865 84.85 44.525C84.212 49.186 80.61 52.643 76.803 52.249Z" fill="#E4B692"/>
<path d="M33.298 44.5259C32.655 39.8659 35.222 35.7659 39.025 35.3699C42.836 34.9729 46.441 38.4329 47.08 43.0939C47.722 47.7499 45.15 51.8519 41.346 52.2499C37.538 52.6429 33.936 49.1859 33.298 44.5259Z" fill="#F1C9A5"/>
<path d="M80 40.409C80 23.335 70.598 13.626 59 13.626V71.326C70.597 71.326 80 62.418 80 40.409Z" fill="#E4B692"/>
<path d="M38.801 46.066C38.801 46.066 41.689 40.515 42.921 29.846C51.634 38.125 61.899 39.45 75.467 29.846C75.801 37.625 78.076 42.477 80.743 46.066C82.384 32.625 86.009 26 84.792 18.936C75.749 20.432 72.565 13 58.999 13C45.431 13 42.412 20.149 33.981 19.51C33.982 27.903 38 32.375 38.801 46.066Z" fill="#265A68"/>
<path d="M93.666 89.9919C90.676 84.3319 77.291 80.0259 68.056 77.6609C67.697 82.3519 63.784 86.0499 59 86.0499C54.217 86.0499 50.304 82.3529 49.944 77.6609C40.709 80.0259 27.324 84.3319 24.334 89.9919C20.885 102.25 18 117.825 18 117.825H59H100C100 117.825 98.051 101.125 93.666 89.9919Z" fill="#2D5972"/>
</svg>
