<svg width="118" height="118" viewBox="0 0 118 118" fill="none" xmlns="http://www.w3.org/2000/svg">
<path d="M58.5 118V16.8572C54 16.8572 45.5 17.8488 39.5 22.8068C35.692 25.9534 31.5 34.7059 31 46.1093C28 45.6135 27.009 46.5558 26.5 49.0841C25.991 51.6123 27 54.3725 28 55.5294C31 59 33.193 60.5918 33.5 60.9832C37 65.4454 38.5 71.5603 42 75.8572C42 78.3362 42 80.3194 39.5 82.7983C36 86.2689 26.5 92.2185 22 96.6807C15.4808 103.145 15 109.571 15 118H58.5Z" fill="#FFD098"/>
<path d="M58.5 118V16.8572C63 16.8572 71.5 17.8488 77.5 22.8068C81.308 25.9534 85.5 34.7059 86 46.1093C89 45.6135 89.991 46.5558 90.5 49.0841C91.009 51.6123 90 54.3725 89 55.5294C86 59 83.807 60.5918 83.5 60.9832C80 65.4454 78.5 71.5603 75 75.8572C75 78.3362 75 80.3194 77.5 82.7983C81 86.2689 90.5 92.2185 95 96.6807C101.519 103.145 102 109.571 102 118H58.5Z" fill="#F1BA85"/>
<path fill-rule="evenodd" clip-rule="evenodd" d="M31.5 46.605C32.3333 50.0756 34.0736 56.9336 37.5 59.9915C42.5 64.4537 46 66.9327 48 67.4285C49.3333 65.9411 54.1 62.9663 58.5 62.9663C62.9 62.9663 67.6667 65.9411 69 67.4285C71 66.9327 74.5 64.4537 79.5 59.9915C82.9264 56.9336 84.6667 50.0756 85.5 46.605C85.5 61.9747 79.0456 71.9957 76.5 75.3613C73.5 79.3277 71 81.3109 68 83.2941C65 85.2772 61.5 86.2688 58.5 86.2688C55.5 86.2688 52 85.2772 49 83.2941C46 81.3109 43.5 79.3277 40.5 75.3613C37.9544 71.9957 31.5 61.9747 31.5 46.605Z" fill="#0A2F3D"/>
<path fill-rule="evenodd" clip-rule="evenodd" d="M40 81.3109L40.5 100.647C42 106.101 47.7 112.546 58.5 112.546C69.3 112.546 75 106.101 76.5 100.647L77 81.3109L84.5 87.7563C84.5 89.0311 84.4273 90.6598 84.3464 92.4706C84.1128 97.7027 83.8114 104.455 85 108.58C86.6 114.133 93 117.174 96 118H58.5H21C24 117.174 30.4 114.133 32 108.58C33.1886 104.455 32.8872 97.7027 32.6536 92.4706C32.5727 90.6598 32.5 89.0311 32.5 87.7563L40 81.3109Z" fill="#7A917B"/>
<path d="M52.5 70.6814C52.5 70.2046 52.7642 69.7629 53.1925 69.5463C57.3703 67.4345 59.9138 67.4466 63.8562 69.5524C64.2563 69.7661 64.5 70.1855 64.5 70.6362C64.5 71.6189 63.4111 72.2212 62.5139 71.8038C59.7363 70.5113 57.5284 70.5415 54.483 71.8906C53.5725 72.2939 52.5 71.6702 52.5 70.6814Z" fill="#FFD098"/>
</svg>
