<svg width="32" height="32" viewBox="0 0 32 32" fill="none" xmlns="http://www.w3.org/2000/svg">
<rect x="0.5" y="0.5" width="31" height="31" rx="15.5" fill="#BBD02D" stroke="white"/>
<rect x="14.5639" y="9" width="1.51276" height="12.2702" fill="#271F47"/>
<path fill-rule="evenodd" clip-rule="evenodd" d="M11.4542 21.2702C13.9143 21.2702 15.9085 19.276 15.9085 16.8159C15.9085 14.3559 13.9143 12.3617 11.4542 12.3617C8.99423 12.3617 7 14.3559 7 16.8159C7 19.276 8.99423 21.2702 11.4542 21.2702ZM11.5383 19.9255C13.2093 19.9255 14.5639 18.5709 14.5639 16.9C14.5639 15.229 13.2093 13.8744 11.5383 13.8744C9.8674 13.8744 8.51282 15.229 8.51282 16.9C8.51282 18.5709 9.8674 19.9255 11.5383 19.9255Z" fill="#271F47"/>
<path fill-rule="evenodd" clip-rule="evenodd" d="M24.3128 12.5298H26.1618L22.632 21.2702H22.6319L22.6319 21.2702H20.783L17.2532 12.5298H19.1021L21.7075 18.9811L24.3128 12.5298Z" fill="#271F47"/>
</svg>
