<svg width="118" height="118" viewBox="0 0 118 118" fill="none" xmlns="http://www.w3.org/2000/svg">
<path d="M63.1032 14.7758C63.1032 14.7758 52.2331 12.5816 42.9641 18.6144C33.6951 24.6482 38.6167 33.2334 29.6665 40.0894C20.7184 46.9454 21.9954 53.1145 26.9503 60.6555C31.903 68.1966 20.7044 71.7212 23.8628 80.9243C26.9256 89.8446 37.8161 94.407 37.8161 94.407H86.5574C86.5574 94.407 102.274 84.437 103.072 77.1703C103.871 69.9027 95.0322 66.2841 97.5896 61.2107C100.145 56.1373 100.329 49.0217 94.4495 43.4584C87.2013 36.6024 92.8151 35.1716 87.3569 25.6932C81.0574 14.7555 71.8871 12.3827 63.1032 14.7758Z" fill="#471B18"/>
<path d="M99.2025 92.035C94.1951 83.9019 62 78.7981 62 78.7981C62 78.7981 29.8049 83.9019 24.7975 92.035C21.0961 103.322 18 117.663 18 117.663H62H106C106 117.663 103.908 102.286 99.2025 92.035Z" fill="#F1C9A5"/>
<path d="M62 78.7981C62 78.7981 94.1951 83.9019 99.2025 92.035C103.908 102.286 106 117.663 106 117.663H62V78.7981Z" fill="#E4B692"/>
<path d="M70.7635 62.2631H53.2344V87.433H70.7635V62.2631Z" fill="#F1C9A5"/>
<path d="M70.7635 62.2631H62V87.433H70.7635V62.2631Z" fill="#E4B692"/>
<path opacity="0.1" d="M53.2344 73.9264C54.8109 77.8092 61.1737 80.0347 65.8463 80.0347C67.5354 80.0347 69.1817 79.7916 70.7635 79.3469V62.2631H53.2344V73.9264Z" fill="#DDAC8C"/>
<path d="M84.5366 46.3809C84.5366 30.6598 74.4467 21.7201 62 21.7201C49.5534 21.7201 39.4634 30.6598 39.4634 46.3809C39.4634 62.102 49.5534 74.8481 62 74.8481C74.4467 74.8481 84.5366 62.1029 84.5366 46.3809Z" fill="#F1C9A5"/>
<path d="M81.1057 57.2808C77.0201 56.8904 74.262 52.8768 74.9542 48.32C75.6378 43.7594 79.5066 40.3738 83.5943 40.7614C87.6778 41.15 90.4315 45.1618 89.7425 49.7223C89.0557 54.2828 85.1912 57.6657 81.1057 57.2808Z" fill="#E4B692"/>
<path d="M34.4163 49.7223C33.7262 45.1618 36.481 41.1491 40.5623 40.7614C44.6511 40.3738 48.521 43.7594 49.2067 48.32C49.8968 52.8768 47.1355 56.8913 43.0531 57.2808C38.9665 57.6657 35.102 54.2828 34.4163 49.7223Z" fill="#F1C9A5"/>
<path d="M84.5366 46.3809C84.5366 30.6598 74.4466 21.7201 62 21.7201V74.8481C74.4466 74.8481 84.5366 62.1029 84.5366 46.3809Z" fill="#E4B692"/>
<path d="M34.6427 117.663H62H89.2446V92.2792H34.6427V117.663Z" fill="white"/>
<path d="M56.7114 117.663L51.6203 80.8257C40.2286 82.3597 27.3205 87.9331 24.7975 92.035C21.0961 103.322 18 117.663 18 117.663H56.7114Z" fill="#FE393E"/>
<path d="M69.4575 117.663H106C106 117.663 103.908 102.286 99.2025 92.0352C95.0944 85.7556 78.8563 82.3543 73.1975 80.9243L69.4575 117.663Z" fill="#FE393E"/>
<path d="M61.9431 30.1074C61.9431 30.1074 57.087 39.0959 50.2456 41.9236C39.4634 46.3819 48.8182 53.1882 47.5626 62.2641C46.4304 70.4525 35.3446 74.1889 41.8115 82.9942C30.57 84.8937 31.1066 80.0358 31.1066 80.0358C31.1066 80.0358 30.0335 54.747 29.7652 54.1669C29.4969 53.5869 36.2042 37.9339 36.2042 37.9339L45.8498 20.2092L63.1021 17.214L61.9431 30.1074Z" fill="#471B18"/>
<path d="M61.9431 30.1073C61.9431 30.1073 62.4862 37.1659 70.7635 37.7801C79.043 38.3942 80.1162 43.5974 78.5064 48.285C76.8967 52.9726 76.1798 55.5821 80.6528 59.2651C85.1236 62.9482 80.1162 77.1703 80.1162 77.1703L96.5722 70.4515C96.5722 70.4515 93.0619 59.0312 94.9624 52.666C96.863 46.3008 88.3431 41.7706 86.1968 37.1668C84.0504 32.563 73.2747 15.9525 64.5552 17.2139C55.8336 18.4753 56.7114 26.4243 56.7114 26.4243L61.9431 30.1073Z" fill="#471B18"/>
</svg>
