<svg width="118" height="118" viewBox="0 0 118 118" fill="none" xmlns="http://www.w3.org/2000/svg">
<g clip-path="url(#clip0)">
<path d="M46.6074 18.8487C46.6074 18.8487 35.2122 17.1029 30.8307 28.3138C27.9499 35.6888 31.7322 58.5158 29.0276 66.4033C32.6338 59.192 33.5353 56.9381 33.5353 56.9381C33.5353 56.9381 32.6346 69.3323 30.6053 72.2632C35.7891 61.2186 35.7891 64.1486 35.7891 64.1486C35.7891 64.1486 35.79 73.1665 33.986 77.447C38.0429 70.6846 38.9444 66.4024 38.9444 66.4024C38.9444 66.4024 40.2958 69.1069 37.8166 75.1923C39.846 72.2632 41.4236 67.5293 41.4236 67.5293C41.4236 67.5293 41.7608 73.391 42.5496 75.9829C43.0013 72.1496 44.1282 71.0236 44.1282 71.0236C44.1282 71.0236 46.0439 74.2898 46.6065 76.8826C47.1709 73.1638 46.6065 70.5728 46.6065 70.5728L50.2341 77.0364L63.0602 76.0938L64.6379 71.8115C64.6379 71.8115 65.9911 74.2916 64.6379 76.9962C66.4419 75.3058 67.4552 73.2765 67.4552 71.4735C67.7933 76.4327 67.4552 79.7008 67.4552 79.7008C70.2716 74.9678 70.4978 70.2356 70.4978 70.2356C70.4978 70.2356 71.5112 77.5588 71.2858 77.8959C71.0604 78.234 73.5405 74.2898 73.2024 69.1069C74.3293 74.0653 75.1173 75.0814 73.9912 77.6723C77.3711 72.6004 76.1324 68.2063 76.1324 68.2063C76.1324 68.2063 78.1626 70.7973 77.9363 73.6146C80.0766 68.0927 78.8378 64.8256 78.8378 64.8256C78.8378 64.8256 81.7669 66.9676 81.0917 70.9109C83.1201 66.177 81.1927 61.3313 81.1927 61.3313C81.1927 61.3313 83.0065 63.3606 85.8247 63.586C83.6836 60.7696 84.1343 56.7119 84.1343 56.7119C84.1343 56.7119 86.1628 57.2753 86.2754 59.8672C86.9525 56.8237 88.8673 49.3861 86.2754 45.3292C89.3181 46.9069 89.9942 47.5839 89.9942 47.5839C89.9942 47.5839 87.8531 42.1748 85.0358 40.1463C83.6835 34.6245 81.9941 28.9899 78.6125 27.525C82.8947 28.9908 85.712 29.7797 87.4023 28.4274C84.4724 28.202 80.7536 25.611 79.0632 22.5666C83.3455 22.9055 85.1485 24.5959 85.1485 24.5959C85.1485 24.5959 81.2052 19.4121 76.4722 18.8487C71.5138 13.6649 64.8078 9.8513 59.5114 11.3163C54.214 12.7795 49.9881 13.1014 46.6074 18.8487Z" fill="#5A3017"/>
<path d="M90.9834 91.6665C86.5447 83.263 58.0044 77.9897 58.0044 77.9897C58.0044 77.9897 29.4641 83.263 25.0254 91.6665C21.7439 103.327 19 118.144 19 118.144H58.0044H97.0088C97.0088 118.144 95.1557 102.257 90.9834 91.6665Z" fill="#F1C9A5"/>
<path d="M58.0044 77.9897C58.0044 77.9897 86.5447 83.263 90.9834 91.6665C95.1557 102.258 97.0088 118.144 97.0088 118.144H58.0044V77.9897Z" fill="#E4B692"/>
<path d="M65.7747 60.9055H50.235V86.9111H65.7747V60.9055Z" fill="#F1C9A5"/>
<path d="M65.7747 60.9055H58.0044V86.9111H65.7747V60.9055Z" fill="#E4B692"/>
<path opacity="0.1" d="M50.235 72.9563C51.6329 76.9675 57.2728 79.2678 61.4146 79.2678C62.9136 79.2678 64.3705 79.0174 65.7747 78.5568V60.9055H50.235V72.9563Z" fill="#DDAC8C"/>
<path d="M77.9829 44.4956C77.9829 28.252 69.0374 19.0159 58.0044 19.0159C46.9714 19.0159 38.0259 28.252 38.0259 44.4956C38.0259 66.3442 46.9714 73.9079 58.0044 73.9079C69.0374 73.9079 77.9829 65.4328 77.9829 44.4956Z" fill="#F1C9A5"/>
<path d="M74.942 55.759C71.3207 55.3798 68.8754 51.4786 69.4881 47.0488C70.0945 42.6154 73.5244 39.3232 77.1475 39.7006C80.767 40.078 83.2077 43.9775 82.5969 48.4109C81.9887 52.8443 78.5633 56.1338 74.942 55.759Z" fill="#E4B692"/>
<path d="M33.5531 48.4109C32.9414 43.9775 35.383 40.078 39.0007 39.7006C42.6265 39.3232 46.0564 42.6154 46.6628 47.0488C47.2746 51.4786 44.8276 55.3798 41.2072 55.759C37.5867 56.1338 34.1604 52.8443 33.5531 48.4109Z" fill="#F1C9A5"/>
<path d="M77.9828 44.4956C77.9828 28.252 69.0374 19.0159 58.0044 19.0159V73.9079C69.0374 73.9079 77.9828 65.4328 77.9828 44.4956Z" fill="#E4B692"/>
<path d="M90.9834 91.6667C88.3907 86.7593 77.5867 82.9224 69.0409 80.5783L58.0044 103.437L46.9679 80.5774C38.4213 82.9215 27.6182 86.7584 25.0254 91.6658C21.7439 103.328 19 118.145 19 118.145H58.0044H97.0088C97.0088 118.145 95.1557 102.257 90.9834 91.6667Z" fill="#3A526E"/>
<path d="M71.5246 83.466C70.4352 80.1318 67.3756 79.7937 67.3756 79.7937L64.0405 88.1945L72.2714 95.845C72.2723 95.8432 71.8644 88.7034 71.5246 83.466Z" fill="white"/>
<path d="M48.6054 79.793C48.6054 79.793 45.5449 80.1319 44.4555 83.4653C44.1157 88.7027 43.7078 95.8433 43.7078 95.8433L51.9387 88.1929L48.6054 79.793Z" fill="white"/>
<path d="M41.6338 82.1682C34.4154 84.507 27.0976 87.7437 25.0254 91.6655C21.7439 103.327 19 118.144 19 118.144H41.6347L41.6338 82.1682Z" fill="#161510"/>
<path d="M73.5038 81.8911V118.144H97.0088C97.0088 118.144 95.1557 102.257 90.9834 91.6666C88.8271 87.5856 80.9951 84.2487 73.5038 81.8911Z" fill="#161510"/>
<path d="M76.2451 44.2208C76.0555 43.9319 75.805 43.6886 75.4902 43.4892C74.7184 42.9928 73.5557 42.7549 71.928 42.7549C70.4657 42.7549 68.8817 42.9427 67.4838 43.1091C67.1592 43.1466 66.8452 43.1842 66.5501 43.2173C62.7168 43.6412 60.5998 44.481 59.6867 45.9379C59.3826 46.4227 59.2359 46.9388 59.1966 47.4852C58.3389 47.182 57.4964 47.3144 56.8211 47.5961C56.7952 47.0094 56.6476 46.4558 56.323 45.9379C55.4098 44.481 53.2928 43.6412 49.4596 43.2173C49.1644 43.1842 48.8505 43.1466 48.5258 43.1091C47.1279 42.9418 45.5431 42.7549 44.0826 42.7549C43.7562 42.7549 43.4494 42.7665 43.1596 42.7862C41.4183 42.8998 40.328 43.3639 39.7646 44.2208C39.4524 44.6966 39.3371 45.2725 39.4059 45.9397C39.4569 46.4227 39.6018 46.9522 39.8531 47.5317C42.0685 52.6395 44.8884 55.1115 48.7253 55.3092C48.8791 55.3172 49.0437 55.3226 49.2163 55.3226C51.8064 55.3226 54.8982 54.4094 55.8078 51.848L55.8329 51.7755C56.1772 50.8087 56.4983 49.8982 56.678 49.0477C56.8041 48.9529 57.0188 48.8133 57.2934 48.698C57.745 48.5075 58.3532 48.3966 58.9864 48.698C59.0902 48.7463 59.193 48.8035 59.2976 48.876C59.4667 49.7766 59.8092 50.7434 60.175 51.7746L60.201 51.8471C61.1114 54.4076 64.2033 55.3217 66.7925 55.3217C66.9642 55.3217 67.1297 55.3163 67.2835 55.3083C71.1203 55.1097 73.9394 52.6386 76.1565 47.5308C76.4034 46.962 76.5474 46.4379 76.6001 45.9603C76.6753 45.2851 76.5599 44.7019 76.2451 44.2208ZM61.3314 51.4464L61.3064 51.3739C60.9013 50.2336 60.5292 49.1836 60.4228 48.2821L60.4389 48.2642C60.4326 48.2588 60.4254 48.2544 60.4192 48.2463C60.3476 47.6051 60.4129 47.038 60.7027 46.5729C61.3851 45.4863 63.3402 44.7771 66.6834 44.4077C66.9812 44.3746 67.2987 44.337 67.6269 44.2977C68.9908 44.1358 70.539 43.9524 71.9297 43.9524C73.7274 43.9524 74.8427 44.2646 75.2452 44.8772C75.5484 45.3387 75.4858 46.0721 75.06 47.055C73.0173 51.7603 70.6016 53.9363 67.2253 54.1125C67.0912 54.1197 66.9454 54.1241 66.7961 54.1241C66.0385 54.1241 62.2357 53.9936 61.3314 51.4464ZM54.6782 51.4464C53.7722 53.9944 49.9694 54.1241 49.2163 54.1241C49.0651 54.1241 48.922 54.1197 48.787 54.1125C45.4107 53.9372 42.9951 51.7603 40.9523 47.055C40.5257 46.0721 40.464 45.3387 40.7672 44.8772C41.1696 44.2637 42.2849 43.9524 44.0835 43.9524C45.4734 43.9524 47.0197 44.1358 48.3845 44.2977C48.7128 44.337 49.0303 44.3746 49.3281 44.4077C52.6695 44.7771 54.6263 45.4863 55.3079 46.5729C56.0108 47.6963 55.4053 49.4001 54.705 51.373L54.6782 51.4464Z" fill="#26232C"/>
<path d="M61.3315 51.4466L61.3064 51.3741C60.9013 50.2338 60.5292 49.1838 60.4228 48.2823L60.4389 48.2644C60.4326 48.259 60.4255 48.2546 60.4192 48.2465C60.3476 47.6052 60.4129 47.0382 60.7027 46.5731C61.3851 45.4865 63.3402 44.7772 66.6834 44.4079C66.9812 44.3748 67.2987 44.3372 67.6269 44.2979C68.9909 44.136 70.539 43.9526 71.9298 43.9526C73.7274 43.9526 74.8427 44.2648 75.2452 44.8774C75.5484 45.3389 75.4858 46.0723 75.0601 47.0552C73.0173 51.7605 70.6016 53.9365 67.2254 54.1127C67.0912 54.1198 66.9454 54.1243 66.7961 54.1243C66.0385 54.1243 62.2357 53.9937 61.3315 51.4466ZM54.6782 51.4466C53.7722 53.9946 49.9694 54.1243 49.2163 54.1243C49.0652 54.1243 48.9221 54.1198 48.787 54.1127C45.4108 53.9374 42.9951 51.7605 40.9523 47.0552C40.5257 46.0723 40.464 45.3389 40.7672 44.8774C41.1697 44.2639 42.2849 43.9526 44.0835 43.9526C45.4734 43.9526 47.0197 44.136 48.3845 44.2979C48.7128 44.3372 49.0303 44.3748 49.3281 44.4079C52.6695 44.7772 54.6264 45.4865 55.3079 46.5731C56.0108 47.6965 55.4054 49.4003 54.7051 51.3732L54.6782 51.4466Z" fill="white"/>
<path d="M71.344 28.1734C71.344 28.1734 71.7787 35.7711 59.3925 45.1798C62.4352 40.8377 62.4352 37.9417 62.4352 37.9417C62.4352 37.9417 59.8808 42.5781 52.3833 47.1922C53.2804 45.2254 55.807 38.1 55.807 38.1C55.807 38.1 50.9971 44.5457 48.5536 48.616C49.5321 45.3596 50.1018 40.4763 54.5844 36.745C50.5096 38.7117 44.2338 44.5466 44.4789 51.9413C43.0103 50.1767 43.4182 44.0037 43.4182 44.0037C43.4182 44.0037 39.7521 46.8532 40.9738 57.8432C39.6707 56.4865 38.1217 44.8176 38.1217 44.8176C38.1217 44.8176 35.3787 46.8988 35.7051 53.5011C32.0981 49.4004 22.624 24.9876 55.1541 16.4142C55.1541 16.4142 74.7641 12.1105 80.742 26.5C87.6162 43.0405 82.6909 53.7229 77.6466 58.5203C78.787 54.179 79.8468 50.6516 79.1939 48.684C77.9731 52.5512 74.223 53.3651 74.223 53.3651C74.223 53.3651 78.787 48.0052 78.4614 45.0206C75.0369 49.5667 70.963 50.3117 70.5561 50.1767C76.7487 43.3258 76.7487 40.1356 76.5045 37.6931C73.8151 43.3258 70.7993 44.6146 70.7993 44.6146C70.7993 44.6146 75.6898 36.4043 75.6898 32.8098C72.3484 37.829 71.6964 38.0338 70.3101 39.1867C72.758 35.9973 72.5389 30.5265 71.344 28.1734Z" fill="#5A3017"/>
</g>
<defs>
<clipPath id="clip0">
<rect width="118" height="118" fill="white"/>
</clipPath>
</defs>
</svg>
