<svg width="43" height="56" viewBox="0 0 43 56" fill="none" xmlns="http://www.w3.org/2000/svg">
  <path d="M0 0h29.107L43 13.5V56H0V0z" fill="#E20513"/>
  <path d="M29 14V0l14 14v14L29 14z" fill="#000" fill-opacity=".37"/>
  <path d="M41 14L29 2v12h12z" fill="#fff" fill-opacity=".59"/>
  <path d="M39.696 35.555c-.227.14-.878.226-1.29.226-1.344 0-2.991-.614-5.321-1.606.9-.064 1.712-.097 2.45-.097 1.343 0 1.733 0 3.056.334 1.311.324 1.322 1.003 1.105 1.143zm-23.314.204c.52-.905 1.051-1.864 1.593-2.888 1.323-2.49 2.168-4.45 2.786-6.057 1.246 2.253 2.796 4.16 4.606 5.69.228.195.466.378.726.572-3.695.733-6.893 1.617-9.711 2.683zm4.314-23.59c.737 0 1.16 1.838 1.192 3.573.033 1.724-.368 2.931-.878 3.837-.423-1.337-.618-3.428-.618-4.796 0 0-.032-2.615.304-2.615zM6.236 45.275c.424-1.132 2.071-3.374 4.51-5.367.152-.119.53-.475.878-.798-2.547 4.052-4.26 5.658-5.387 6.165zm34.165-12.103c-.737-.722-2.385-1.1-4.878-1.132-1.69-.021-3.717.13-5.864.42-.953-.549-1.94-1.142-2.72-1.864-2.081-1.94-3.815-4.623-4.9-7.576.066-.28.13-.518.185-.765 0 0 1.17-6.628.856-8.87-.043-.313-.065-.399-.151-.636l-.098-.27c-.314-.728-.943-1.504-1.93-1.462L20.328 11h-.01c-1.095 0-1.995.557-2.223 1.384-.715 2.619.022 6.52 1.355 11.574l-.347.83c-.953 2.307-2.146 4.634-3.197 6.682l-.14.27c-1.106 2.155-2.114 3.987-3.025 5.539l-.943.496c-.065.043-1.68.883-2.06 1.11-3.208 1.907-5.34 4.074-5.694 5.798-.113.539-.028 1.24.543 1.573l.91.453c.394.194.817.291 1.24.291 2.286 0 4.942-2.824 8.595-9.171 4.227-1.37 9.04-2.511 13.256-3.136 3.208 1.8 7.153 3.05 9.646 3.05.444 0 .824-.044 1.138-.13.477-.118.878-.388 1.127-.765.477-.722.586-1.714.445-2.737-.033-.302-.282-.68-.542-.938z" fill="#fff"/>
</svg>
