<svg width="43" height="56" viewBox="0 0 43 56" fill="none" xmlns="http://www.w3.org/2000/svg">
  <path d="M0 0h29.107L43 13.5V56H0V0z" fill="#CF4424"/>
  <path d="M16.868 32.227V44H9.983V10.586H23.02c2.509 0 4.712.459 6.609 1.377 1.912.918 3.381 2.226 4.406 3.924 1.025 1.683 1.538 3.603 1.538 5.76 0 3.275-1.125 5.86-3.374 7.757-2.233 1.882-5.332 2.823-9.294 2.823h-6.036zm0-5.577h6.15c1.821 0 3.206-.428 4.154-1.285.964-.856 1.446-2.08 1.446-3.672 0-1.637-.482-2.96-1.446-3.97-.963-1.01-2.295-1.53-3.993-1.56h-6.31V26.65z" fill="#fff"/>
  <path d="M29 14V0l14 14v14L29 14z" fill="#000" fill-opacity=".37"/>
  <path d="M41 14L29 2v12h12z" fill="#fff" fill-opacity=".59"/>
</svg>
