<svg width="43" height="56" viewBox="0 0 43 56" fill="none" xmlns="http://www.w3.org/2000/svg">
  <path d="M0 0h29.107L43 13.5V56H0V0z" fill="#1C6FB7"/>
  <path d="M10.443 16.672h21.674l.035 7.26h-1.037c-.34-2.59-1.312-4.342-2.918-5.256-.902-.504-2.25-.78-4.043-.826v18.949c0 1.324.229 2.203.686 2.636.469.434 1.435.65 2.9.65V41H14.908v-.914c1.406 0 2.338-.217 2.795-.65.469-.446.703-1.325.703-2.637v-18.95c-1.758.047-3.105.323-4.043.827-1.722.937-2.695 2.69-2.918 5.256h-1.037l.035-7.26z" fill="#fff"/>
  <path d="M29 14V0l14 14v14L29 14z" fill="#000" fill-opacity=".37"/>
  <path d="M41 14L29 2v12h12z" fill="#fff" fill-opacity=".59"/>
</svg>
